<mxfile host="app.diagrams.net" modified="2023-11-06T16:31:47.194Z" agent="Mozilla/5.0 (Windows NT 10.0; Win64; x64) AppleWebKit/537.36 (KHTML, like Gecko) Chrome/118.0.0.0 Safari/537.36" etag="W6GCuvZsqX-kCPhgJoLk" version="22.0.8" type="device">
  <diagram id="R2lEEEUBdFMjLlhIrx00" name="Page-1">
    <mxGraphModel dx="1843" dy="861" grid="1" gridSize="10" guides="1" tooltips="1" connect="1" arrows="1" fold="1" page="1" pageScale="1" pageWidth="2339" pageHeight="3300" math="0" shadow="0" extFonts="Permanent Marker^https://fonts.googleapis.com/css?family=Permanent+Marker">
      <root>
        <mxCell id="0" />
        <mxCell id="1" parent="0" />
        <mxCell id="71UlrcfyzYEdRjOuj_ob-1" value="SYSTEM" style="ellipse;whiteSpace=wrap;html=1;" parent="1" vertex="1">
          <mxGeometry x="410" y="320" width="180" height="120" as="geometry" />
        </mxCell>
        <mxCell id="71UlrcfyzYEdRjOuj_ob-2" value="USER" style="rounded=1;whiteSpace=wrap;html=1;" parent="1" vertex="1">
          <mxGeometry x="730" y="330" width="140" height="100" as="geometry" />
        </mxCell>
        <mxCell id="71UlrcfyzYEdRjOuj_ob-4" value="ADMIN" style="rounded=1;whiteSpace=wrap;html=1;" parent="1" vertex="1">
          <mxGeometry x="130" y="330" width="140" height="100" as="geometry" />
        </mxCell>
        <mxCell id="71UlrcfyzYEdRjOuj_ob-5" value="" style="endArrow=classic;html=1;rounded=0;exitX=1.011;exitY=0.178;exitDx=0;exitDy=0;exitPerimeter=0;" parent="1" edge="1">
          <mxGeometry width="50" height="50" relative="1" as="geometry">
            <mxPoint x="270.53999999999996" y="347.79999999999995" as="sourcePoint" />
            <mxPoint x="399" y="348" as="targetPoint" />
          </mxGeometry>
        </mxCell>
        <mxCell id="71UlrcfyzYEdRjOuj_ob-6" value="MANAGE USER ACCOUNTS" style="text;html=1;strokeColor=none;fillColor=none;align=center;verticalAlign=middle;whiteSpace=wrap;rounded=0;" parent="1" vertex="1">
          <mxGeometry x="279" y="320" width="110" height="30" as="geometry" />
        </mxCell>
        <mxCell id="71UlrcfyzYEdRjOuj_ob-8" value="" style="endArrow=classic;html=1;rounded=0;exitX=1.011;exitY=0.178;exitDx=0;exitDy=0;exitPerimeter=0;" parent="1" edge="1">
          <mxGeometry width="50" height="50" relative="1" as="geometry">
            <mxPoint x="270" y="378" as="sourcePoint" />
            <mxPoint x="398" y="378" as="targetPoint" />
          </mxGeometry>
        </mxCell>
        <mxCell id="71UlrcfyzYEdRjOuj_ob-9" value="CHECK SALES" style="text;html=1;strokeColor=none;fillColor=none;align=center;verticalAlign=middle;whiteSpace=wrap;rounded=0;" parent="1" vertex="1">
          <mxGeometry x="278" y="350" width="110" height="30" as="geometry" />
        </mxCell>
        <mxCell id="71UlrcfyzYEdRjOuj_ob-10" value="" style="endArrow=classic;html=1;rounded=0;exitX=1.011;exitY=0.178;exitDx=0;exitDy=0;exitPerimeter=0;" parent="1" edge="1">
          <mxGeometry width="50" height="50" relative="1" as="geometry">
            <mxPoint x="270" y="408" as="sourcePoint" />
            <mxPoint x="398" y="408" as="targetPoint" />
          </mxGeometry>
        </mxCell>
        <mxCell id="71UlrcfyzYEdRjOuj_ob-11" value="EDIT INFO" style="text;html=1;strokeColor=none;fillColor=none;align=center;verticalAlign=middle;whiteSpace=wrap;rounded=0;" parent="1" vertex="1">
          <mxGeometry x="278" y="380" width="110" height="30" as="geometry" />
        </mxCell>
        <mxCell id="71UlrcfyzYEdRjOuj_ob-12" value="" style="endArrow=classic;html=1;rounded=0;exitX=1.011;exitY=0.178;exitDx=0;exitDy=0;exitPerimeter=0;" parent="1" edge="1">
          <mxGeometry width="50" height="50" relative="1" as="geometry">
            <mxPoint x="270" y="438" as="sourcePoint" />
            <mxPoint x="398" y="438" as="targetPoint" />
          </mxGeometry>
        </mxCell>
        <mxCell id="71UlrcfyzYEdRjOuj_ob-13" value="CHECK STORE" style="text;html=1;strokeColor=none;fillColor=none;align=center;verticalAlign=middle;whiteSpace=wrap;rounded=0;" parent="1" vertex="1">
          <mxGeometry x="278" y="410" width="110" height="30" as="geometry" />
        </mxCell>
        <mxCell id="71UlrcfyzYEdRjOuj_ob-15" value="" style="endArrow=classic;html=1;rounded=0;" parent="1" edge="1">
          <mxGeometry width="50" height="50" relative="1" as="geometry">
            <mxPoint x="730" y="348" as="sourcePoint" />
            <mxPoint x="600" y="348" as="targetPoint" />
            <Array as="points" />
          </mxGeometry>
        </mxCell>
        <mxCell id="71UlrcfyzYEdRjOuj_ob-16" value="SHOP LOCATION" style="text;html=1;strokeColor=none;fillColor=none;align=center;verticalAlign=middle;whiteSpace=wrap;rounded=0;" parent="1" vertex="1">
          <mxGeometry x="620" y="320" width="110" height="30" as="geometry" />
        </mxCell>
        <mxCell id="71UlrcfyzYEdRjOuj_ob-25" value="" style="endArrow=classic;html=1;rounded=0;" parent="1" edge="1">
          <mxGeometry width="50" height="50" relative="1" as="geometry">
            <mxPoint x="730" y="378" as="sourcePoint" />
            <mxPoint x="600" y="378" as="targetPoint" />
            <Array as="points" />
          </mxGeometry>
        </mxCell>
        <mxCell id="71UlrcfyzYEdRjOuj_ob-26" value="APPOINTMENT" style="text;html=1;strokeColor=none;fillColor=none;align=center;verticalAlign=middle;whiteSpace=wrap;rounded=0;" parent="1" vertex="1">
          <mxGeometry x="620" y="350" width="110" height="30" as="geometry" />
        </mxCell>
        <mxCell id="71UlrcfyzYEdRjOuj_ob-29" value="" style="endArrow=classic;html=1;rounded=0;" parent="1" edge="1">
          <mxGeometry width="50" height="50" relative="1" as="geometry">
            <mxPoint x="730" y="408" as="sourcePoint" />
            <mxPoint x="600" y="408" as="targetPoint" />
            <Array as="points" />
          </mxGeometry>
        </mxCell>
        <mxCell id="71UlrcfyzYEdRjOuj_ob-30" value="CHECK PRICE" style="text;html=1;strokeColor=none;fillColor=none;align=center;verticalAlign=middle;whiteSpace=wrap;rounded=0;" parent="1" vertex="1">
          <mxGeometry x="620" y="380" width="110" height="30" as="geometry" />
        </mxCell>
        <mxCell id="71UlrcfyzYEdRjOuj_ob-31" value="" style="endArrow=classic;html=1;rounded=0;" parent="1" edge="1">
          <mxGeometry width="50" height="50" relative="1" as="geometry">
            <mxPoint x="730" y="438" as="sourcePoint" />
            <mxPoint x="600" y="438" as="targetPoint" />
            <Array as="points" />
          </mxGeometry>
        </mxCell>
        <mxCell id="71UlrcfyzYEdRjOuj_ob-32" value="CART" style="text;html=1;strokeColor=none;fillColor=none;align=center;verticalAlign=middle;whiteSpace=wrap;rounded=0;" parent="1" vertex="1">
          <mxGeometry x="620" y="410" width="110" height="30" as="geometry" />
        </mxCell>
        <mxCell id="71UlrcfyzYEdRjOuj_ob-35" value="&lt;font style=&quot;font-size: 24px;&quot;&gt;&lt;b&gt;&lt;i&gt;&lt;u&gt;LEVEL 0&lt;/u&gt;&lt;/i&gt;&lt;/b&gt;&lt;/font&gt;" style="text;html=1;strokeColor=none;fillColor=none;align=center;verticalAlign=middle;whiteSpace=wrap;rounded=0;" parent="1" vertex="1">
          <mxGeometry x="80" y="190" width="220" height="110" as="geometry" />
        </mxCell>
        <mxCell id="71UlrcfyzYEdRjOuj_ob-189" style="edgeStyle=orthogonalEdgeStyle;rounded=0;orthogonalLoop=1;jettySize=auto;html=1;exitX=0.5;exitY=1;exitDx=0;exitDy=0;entryX=0.5;entryY=0;entryDx=0;entryDy=0;" parent="1" source="71UlrcfyzYEdRjOuj_ob-37" target="71UlrcfyzYEdRjOuj_ob-47" edge="1">
          <mxGeometry relative="1" as="geometry" />
        </mxCell>
        <mxCell id="71UlrcfyzYEdRjOuj_ob-37" value="ADMIN" style="rounded=1;whiteSpace=wrap;html=1;" parent="1" vertex="1">
          <mxGeometry x="95" y="875" width="150" height="110" as="geometry" />
        </mxCell>
        <mxCell id="71UlrcfyzYEdRjOuj_ob-196" style="edgeStyle=orthogonalEdgeStyle;rounded=0;orthogonalLoop=1;jettySize=auto;html=1;exitX=1;exitY=0.5;exitDx=0;exitDy=0;entryX=0;entryY=0.5;entryDx=0;entryDy=0;" parent="1" source="71UlrcfyzYEdRjOuj_ob-38" target="71UlrcfyzYEdRjOuj_ob-40" edge="1">
          <mxGeometry relative="1" as="geometry" />
        </mxCell>
        <mxCell id="71UlrcfyzYEdRjOuj_ob-197" style="edgeStyle=orthogonalEdgeStyle;rounded=0;orthogonalLoop=1;jettySize=auto;html=1;exitX=0;exitY=0.5;exitDx=0;exitDy=0;entryX=1;entryY=0.5;entryDx=0;entryDy=0;" parent="1" source="71UlrcfyzYEdRjOuj_ob-38" target="71UlrcfyzYEdRjOuj_ob-37" edge="1">
          <mxGeometry relative="1" as="geometry" />
        </mxCell>
        <mxCell id="71UlrcfyzYEdRjOuj_ob-38" value="SYSTEM" style="ellipse;whiteSpace=wrap;html=1;" parent="1" vertex="1">
          <mxGeometry x="450" y="890" width="120" height="80" as="geometry" />
        </mxCell>
        <mxCell id="71UlrcfyzYEdRjOuj_ob-192" value="" style="edgeStyle=orthogonalEdgeStyle;rounded=0;orthogonalLoop=1;jettySize=auto;html=1;" parent="1" source="71UlrcfyzYEdRjOuj_ob-40" target="71UlrcfyzYEdRjOuj_ob-43" edge="1">
          <mxGeometry relative="1" as="geometry" />
        </mxCell>
        <mxCell id="71UlrcfyzYEdRjOuj_ob-40" value="USER" style="rounded=1;whiteSpace=wrap;html=1;" parent="1" vertex="1">
          <mxGeometry x="785" y="875" width="150" height="110" as="geometry" />
        </mxCell>
        <mxCell id="71UlrcfyzYEdRjOuj_ob-193" value="" style="edgeStyle=orthogonalEdgeStyle;rounded=0;orthogonalLoop=1;jettySize=auto;html=1;" parent="1" source="71UlrcfyzYEdRjOuj_ob-43" target="71UlrcfyzYEdRjOuj_ob-44" edge="1">
          <mxGeometry relative="1" as="geometry" />
        </mxCell>
        <mxCell id="71UlrcfyzYEdRjOuj_ob-43" value="LOGIN" style="rounded=1;whiteSpace=wrap;html=1;" parent="1" vertex="1">
          <mxGeometry x="800" y="1054" width="120" height="60" as="geometry" />
        </mxCell>
        <mxCell id="71UlrcfyzYEdRjOuj_ob-51" style="edgeStyle=orthogonalEdgeStyle;rounded=0;orthogonalLoop=1;jettySize=auto;html=1;exitX=0;exitY=0.5;exitDx=0;exitDy=0;entryX=1;entryY=0.25;entryDx=0;entryDy=0;" parent="1" source="71UlrcfyzYEdRjOuj_ob-44" target="71UlrcfyzYEdRjOuj_ob-50" edge="1">
          <mxGeometry relative="1" as="geometry" />
        </mxCell>
        <mxCell id="71UlrcfyzYEdRjOuj_ob-52" value="STOCK REDUCTION" style="edgeLabel;html=1;align=center;verticalAlign=middle;resizable=0;points=[];" parent="71UlrcfyzYEdRjOuj_ob-51" vertex="1" connectable="0">
          <mxGeometry x="-0.153" y="2" relative="1" as="geometry">
            <mxPoint as="offset" />
          </mxGeometry>
        </mxCell>
        <mxCell id="71UlrcfyzYEdRjOuj_ob-194" value="" style="edgeStyle=orthogonalEdgeStyle;rounded=0;orthogonalLoop=1;jettySize=auto;html=1;" parent="1" source="71UlrcfyzYEdRjOuj_ob-44" target="71UlrcfyzYEdRjOuj_ob-45" edge="1">
          <mxGeometry relative="1" as="geometry" />
        </mxCell>
        <mxCell id="71UlrcfyzYEdRjOuj_ob-44" value="ORDER" style="rounded=1;whiteSpace=wrap;html=1;" parent="1" vertex="1">
          <mxGeometry x="800" y="1159" width="120" height="60" as="geometry" />
        </mxCell>
        <mxCell id="71UlrcfyzYEdRjOuj_ob-178" style="edgeStyle=orthogonalEdgeStyle;rounded=0;orthogonalLoop=1;jettySize=auto;html=1;exitX=0;exitY=0.5;exitDx=0;exitDy=0;entryX=1;entryY=0.5;entryDx=0;entryDy=0;" parent="1" source="71UlrcfyzYEdRjOuj_ob-45" target="71UlrcfyzYEdRjOuj_ob-177" edge="1">
          <mxGeometry relative="1" as="geometry" />
        </mxCell>
        <mxCell id="71UlrcfyzYEdRjOuj_ob-188" value="PAY" style="edgeLabel;html=1;align=center;verticalAlign=middle;resizable=0;points=[];" parent="71UlrcfyzYEdRjOuj_ob-178" vertex="1" connectable="0">
          <mxGeometry x="0.0188" y="-1" relative="1" as="geometry">
            <mxPoint x="1" as="offset" />
          </mxGeometry>
        </mxCell>
        <mxCell id="71UlrcfyzYEdRjOuj_ob-195" value="" style="edgeStyle=orthogonalEdgeStyle;rounded=0;orthogonalLoop=1;jettySize=auto;html=1;" parent="1" source="71UlrcfyzYEdRjOuj_ob-45" target="71UlrcfyzYEdRjOuj_ob-46" edge="1">
          <mxGeometry relative="1" as="geometry" />
        </mxCell>
        <mxCell id="71UlrcfyzYEdRjOuj_ob-45" value="PAYMENT" style="rounded=1;whiteSpace=wrap;html=1;" parent="1" vertex="1">
          <mxGeometry x="800" y="1278" width="120" height="60" as="geometry" />
        </mxCell>
        <mxCell id="71UlrcfyzYEdRjOuj_ob-46" value="SHIPPING" style="rounded=1;whiteSpace=wrap;html=1;" parent="1" vertex="1">
          <mxGeometry x="800" y="1398" width="120" height="60" as="geometry" />
        </mxCell>
        <mxCell id="71UlrcfyzYEdRjOuj_ob-190" style="edgeStyle=orthogonalEdgeStyle;rounded=0;orthogonalLoop=1;jettySize=auto;html=1;exitX=0.5;exitY=1;exitDx=0;exitDy=0;entryX=0.5;entryY=0;entryDx=0;entryDy=0;" parent="1" source="71UlrcfyzYEdRjOuj_ob-47" target="71UlrcfyzYEdRjOuj_ob-48" edge="1">
          <mxGeometry relative="1" as="geometry" />
        </mxCell>
        <mxCell id="71UlrcfyzYEdRjOuj_ob-47" value="LOGIN" style="rounded=1;whiteSpace=wrap;html=1;" parent="1" vertex="1">
          <mxGeometry x="110" y="1040" width="120" height="60" as="geometry" />
        </mxCell>
        <mxCell id="71UlrcfyzYEdRjOuj_ob-191" style="edgeStyle=orthogonalEdgeStyle;rounded=0;orthogonalLoop=1;jettySize=auto;html=1;exitX=0.5;exitY=1;exitDx=0;exitDy=0;entryX=0.5;entryY=0;entryDx=0;entryDy=0;" parent="1" source="71UlrcfyzYEdRjOuj_ob-48" target="71UlrcfyzYEdRjOuj_ob-50" edge="1">
          <mxGeometry relative="1" as="geometry" />
        </mxCell>
        <mxCell id="71UlrcfyzYEdRjOuj_ob-48" value="CHECK" style="rounded=1;whiteSpace=wrap;html=1;" parent="1" vertex="1">
          <mxGeometry x="110" y="1140" width="120" height="60" as="geometry" />
        </mxCell>
        <mxCell id="71UlrcfyzYEdRjOuj_ob-182" style="edgeStyle=orthogonalEdgeStyle;rounded=0;orthogonalLoop=1;jettySize=auto;html=1;exitX=1;exitY=0.75;exitDx=0;exitDy=0;entryX=0.5;entryY=0;entryDx=0;entryDy=0;" parent="1" source="71UlrcfyzYEdRjOuj_ob-50" target="71UlrcfyzYEdRjOuj_ob-181" edge="1">
          <mxGeometry relative="1" as="geometry" />
        </mxCell>
        <mxCell id="71UlrcfyzYEdRjOuj_ob-183" value="ORDER" style="edgeLabel;html=1;align=center;verticalAlign=middle;resizable=0;points=[];" parent="71UlrcfyzYEdRjOuj_ob-182" vertex="1" connectable="0">
          <mxGeometry x="-0.2644" y="3" relative="1" as="geometry">
            <mxPoint x="1" as="offset" />
          </mxGeometry>
        </mxCell>
        <mxCell id="71UlrcfyzYEdRjOuj_ob-50" value="STORE" style="rounded=1;whiteSpace=wrap;html=1;" parent="1" vertex="1">
          <mxGeometry x="110" y="1308" width="120" height="60" as="geometry" />
        </mxCell>
        <mxCell id="71UlrcfyzYEdRjOuj_ob-85" style="edgeStyle=orthogonalEdgeStyle;rounded=0;orthogonalLoop=1;jettySize=auto;html=1;exitX=0.393;exitY=1.009;exitDx=0;exitDy=0;entryX=0.5;entryY=0;entryDx=0;entryDy=0;exitPerimeter=0;" parent="1" source="71UlrcfyzYEdRjOuj_ob-55" target="71UlrcfyzYEdRjOuj_ob-168" edge="1">
          <mxGeometry relative="1" as="geometry" />
        </mxCell>
        <mxCell id="71UlrcfyzYEdRjOuj_ob-55" value="ADMIN" style="rounded=1;whiteSpace=wrap;html=1;" parent="1" vertex="1">
          <mxGeometry x="2080" y="538" width="150" height="110" as="geometry" />
        </mxCell>
        <mxCell id="71UlrcfyzYEdRjOuj_ob-107" style="edgeStyle=orthogonalEdgeStyle;rounded=0;orthogonalLoop=1;jettySize=auto;html=1;exitX=0.5;exitY=1;exitDx=0;exitDy=0;entryX=0.422;entryY=0.041;entryDx=0;entryDy=0;entryPerimeter=0;" parent="1" source="71UlrcfyzYEdRjOuj_ob-58" target="71UlrcfyzYEdRjOuj_ob-106" edge="1">
          <mxGeometry relative="1" as="geometry" />
        </mxCell>
        <mxCell id="71UlrcfyzYEdRjOuj_ob-108" value="PAY" style="edgeLabel;html=1;align=center;verticalAlign=middle;resizable=0;points=[];" parent="71UlrcfyzYEdRjOuj_ob-107" vertex="1" connectable="0">
          <mxGeometry x="-0.0347" y="-3" relative="1" as="geometry">
            <mxPoint x="-3" y="-4" as="offset" />
          </mxGeometry>
        </mxCell>
        <mxCell id="71UlrcfyzYEdRjOuj_ob-58" value="ACCOUNT" style="ellipse;whiteSpace=wrap;html=1;" parent="1" vertex="1">
          <mxGeometry x="2550" y="1518" width="120" height="80" as="geometry" />
        </mxCell>
        <mxCell id="71UlrcfyzYEdRjOuj_ob-123" style="edgeStyle=orthogonalEdgeStyle;rounded=0;orthogonalLoop=1;jettySize=auto;html=1;exitX=0;exitY=0;exitDx=0;exitDy=0;entryX=1;entryY=0.5;entryDx=0;entryDy=0;" parent="1" source="71UlrcfyzYEdRjOuj_ob-60" target="71UlrcfyzYEdRjOuj_ob-63" edge="1">
          <mxGeometry relative="1" as="geometry" />
        </mxCell>
        <mxCell id="71UlrcfyzYEdRjOuj_ob-158" value="RETAIL SHOP" style="edgeLabel;html=1;align=center;verticalAlign=middle;resizable=0;points=[];" parent="71UlrcfyzYEdRjOuj_ob-123" vertex="1" connectable="0">
          <mxGeometry x="-0.2029" relative="1" as="geometry">
            <mxPoint x="-1" as="offset" />
          </mxGeometry>
        </mxCell>
        <mxCell id="71UlrcfyzYEdRjOuj_ob-144" style="edgeStyle=orthogonalEdgeStyle;rounded=0;orthogonalLoop=1;jettySize=auto;html=1;exitX=0.5;exitY=1;exitDx=0;exitDy=0;entryX=0.5;entryY=0;entryDx=0;entryDy=0;" parent="1" source="71UlrcfyzYEdRjOuj_ob-60" target="71UlrcfyzYEdRjOuj_ob-68" edge="1">
          <mxGeometry relative="1" as="geometry" />
        </mxCell>
        <mxCell id="71UlrcfyzYEdRjOuj_ob-146" style="edgeStyle=orthogonalEdgeStyle;rounded=0;orthogonalLoop=1;jettySize=auto;html=1;exitX=1;exitY=0.5;exitDx=0;exitDy=0;entryX=0.5;entryY=0;entryDx=0;entryDy=0;" parent="1" source="71UlrcfyzYEdRjOuj_ob-60" target="71UlrcfyzYEdRjOuj_ob-67" edge="1">
          <mxGeometry relative="1" as="geometry" />
        </mxCell>
        <mxCell id="71UlrcfyzYEdRjOuj_ob-159" value="USER PROFILE" style="edgeLabel;html=1;align=center;verticalAlign=middle;resizable=0;points=[];" parent="71UlrcfyzYEdRjOuj_ob-146" vertex="1" connectable="0">
          <mxGeometry x="-0.2767" relative="1" as="geometry">
            <mxPoint x="-1" as="offset" />
          </mxGeometry>
        </mxCell>
        <mxCell id="71UlrcfyzYEdRjOuj_ob-60" value="LOGIN" style="rounded=1;whiteSpace=wrap;html=1;" parent="1" vertex="1">
          <mxGeometry x="3420" y="994" width="120" height="60" as="geometry" />
        </mxCell>
        <mxCell id="71UlrcfyzYEdRjOuj_ob-63" value="SHOP LOCATION" style="rounded=1;whiteSpace=wrap;html=1;" parent="1" vertex="1">
          <mxGeometry x="3220" y="864" width="120" height="60" as="geometry" />
        </mxCell>
        <mxCell id="71UlrcfyzYEdRjOuj_ob-128" style="edgeStyle=orthogonalEdgeStyle;rounded=0;orthogonalLoop=1;jettySize=auto;html=1;exitX=0.25;exitY=1;exitDx=0;exitDy=0;entryX=0.75;entryY=0;entryDx=0;entryDy=0;" parent="1" source="71UlrcfyzYEdRjOuj_ob-64" target="71UlrcfyzYEdRjOuj_ob-65" edge="1">
          <mxGeometry relative="1" as="geometry" />
        </mxCell>
        <mxCell id="71UlrcfyzYEdRjOuj_ob-130" style="edgeStyle=orthogonalEdgeStyle;rounded=0;orthogonalLoop=1;jettySize=auto;html=1;entryX=0.5;entryY=0;entryDx=0;entryDy=0;exitX=0.75;exitY=1;exitDx=0;exitDy=0;" parent="1" source="71UlrcfyzYEdRjOuj_ob-64" target="71UlrcfyzYEdRjOuj_ob-127" edge="1">
          <mxGeometry relative="1" as="geometry">
            <mxPoint x="3350" y="1298" as="sourcePoint" />
          </mxGeometry>
        </mxCell>
        <mxCell id="71UlrcfyzYEdRjOuj_ob-156" value="PURCHASE" style="edgeLabel;html=1;align=center;verticalAlign=middle;resizable=0;points=[];" parent="71UlrcfyzYEdRjOuj_ob-130" vertex="1" connectable="0">
          <mxGeometry x="-0.1455" y="1" relative="1" as="geometry">
            <mxPoint as="offset" />
          </mxGeometry>
        </mxCell>
        <mxCell id="71UlrcfyzYEdRjOuj_ob-148" style="edgeStyle=orthogonalEdgeStyle;rounded=0;orthogonalLoop=1;jettySize=auto;html=1;exitX=0;exitY=0.5;exitDx=0;exitDy=0;entryX=1;entryY=0.5;entryDx=0;entryDy=0;" parent="1" source="71UlrcfyzYEdRjOuj_ob-64" target="71UlrcfyzYEdRjOuj_ob-142" edge="1">
          <mxGeometry relative="1" as="geometry" />
        </mxCell>
        <mxCell id="71UlrcfyzYEdRjOuj_ob-149" value="DECREASE" style="edgeLabel;html=1;align=center;verticalAlign=middle;resizable=0;points=[];" parent="71UlrcfyzYEdRjOuj_ob-148" vertex="1" connectable="0">
          <mxGeometry x="-0.4528" y="-2" relative="1" as="geometry">
            <mxPoint as="offset" />
          </mxGeometry>
        </mxCell>
        <mxCell id="71UlrcfyzYEdRjOuj_ob-150" style="edgeStyle=orthogonalEdgeStyle;rounded=0;orthogonalLoop=1;jettySize=auto;html=1;exitX=1;exitY=0.75;exitDx=0;exitDy=0;entryX=0.25;entryY=1;entryDx=0;entryDy=0;" parent="1" source="71UlrcfyzYEdRjOuj_ob-64" target="71UlrcfyzYEdRjOuj_ob-113" edge="1">
          <mxGeometry relative="1" as="geometry" />
        </mxCell>
        <mxCell id="71UlrcfyzYEdRjOuj_ob-151" value="PRODUCT STATUS" style="edgeLabel;html=1;align=center;verticalAlign=middle;resizable=0;points=[];" parent="71UlrcfyzYEdRjOuj_ob-150" vertex="1" connectable="0">
          <mxGeometry x="-0.2251" y="-1" relative="1" as="geometry">
            <mxPoint x="-1" as="offset" />
          </mxGeometry>
        </mxCell>
        <mxCell id="71UlrcfyzYEdRjOuj_ob-64" value="ORDER" style="rounded=1;whiteSpace=wrap;html=1;" parent="1" vertex="1">
          <mxGeometry x="3140" y="1214" width="120" height="60" as="geometry" />
        </mxCell>
        <mxCell id="71UlrcfyzYEdRjOuj_ob-129" style="edgeStyle=orthogonalEdgeStyle;rounded=0;orthogonalLoop=1;jettySize=auto;html=1;exitX=0.25;exitY=0;exitDx=0;exitDy=0;entryX=0;entryY=0.5;entryDx=0;entryDy=0;" parent="1" source="71UlrcfyzYEdRjOuj_ob-65" target="71UlrcfyzYEdRjOuj_ob-68" edge="1">
          <mxGeometry relative="1" as="geometry" />
        </mxCell>
        <mxCell id="71UlrcfyzYEdRjOuj_ob-154" value="BUY OTHERS" style="edgeLabel;html=1;align=center;verticalAlign=middle;resizable=0;points=[];" parent="71UlrcfyzYEdRjOuj_ob-129" vertex="1" connectable="0">
          <mxGeometry x="0.1151" relative="1" as="geometry">
            <mxPoint as="offset" />
          </mxGeometry>
        </mxCell>
        <mxCell id="71UlrcfyzYEdRjOuj_ob-65" value="CONTINUE&amp;nbsp;&lt;br&gt;SHOPPING" style="rounded=1;whiteSpace=wrap;html=1;" parent="1" vertex="1">
          <mxGeometry x="2990" y="1338" width="120" height="60" as="geometry" />
        </mxCell>
        <mxCell id="71UlrcfyzYEdRjOuj_ob-87" style="edgeStyle=orthogonalEdgeStyle;rounded=0;orthogonalLoop=1;jettySize=auto;html=1;exitX=1;exitY=0.5;exitDx=0;exitDy=0;entryX=0;entryY=0.5;entryDx=0;entryDy=0;" parent="1" source="71UlrcfyzYEdRjOuj_ob-66" target="71UlrcfyzYEdRjOuj_ob-70" edge="1">
          <mxGeometry relative="1" as="geometry" />
        </mxCell>
        <mxCell id="71UlrcfyzYEdRjOuj_ob-88" style="edgeStyle=orthogonalEdgeStyle;rounded=0;orthogonalLoop=1;jettySize=auto;html=1;exitX=1;exitY=1;exitDx=0;exitDy=0;entryX=0.5;entryY=0;entryDx=0;entryDy=0;" parent="1" source="71UlrcfyzYEdRjOuj_ob-66" target="71UlrcfyzYEdRjOuj_ob-69" edge="1">
          <mxGeometry relative="1" as="geometry" />
        </mxCell>
        <mxCell id="71UlrcfyzYEdRjOuj_ob-89" style="edgeStyle=orthogonalEdgeStyle;rounded=0;orthogonalLoop=1;jettySize=auto;html=1;exitX=0.5;exitY=1;exitDx=0;exitDy=0;entryX=0.5;entryY=0;entryDx=0;entryDy=0;" parent="1" source="71UlrcfyzYEdRjOuj_ob-66" target="71UlrcfyzYEdRjOuj_ob-71" edge="1">
          <mxGeometry relative="1" as="geometry" />
        </mxCell>
        <mxCell id="71UlrcfyzYEdRjOuj_ob-90" style="edgeStyle=orthogonalEdgeStyle;rounded=0;orthogonalLoop=1;jettySize=auto;html=1;exitX=0;exitY=0.5;exitDx=0;exitDy=0;entryX=0.411;entryY=1.066;entryDx=0;entryDy=0;entryPerimeter=0;" parent="1" source="71UlrcfyzYEdRjOuj_ob-66" target="71UlrcfyzYEdRjOuj_ob-72" edge="1">
          <mxGeometry relative="1" as="geometry">
            <mxPoint x="1940" y="1048" as="sourcePoint" />
          </mxGeometry>
        </mxCell>
        <mxCell id="71UlrcfyzYEdRjOuj_ob-66" value="CHECK" style="rounded=1;whiteSpace=wrap;html=1;" parent="1" vertex="1">
          <mxGeometry x="2080" y="1018" width="120" height="60" as="geometry" />
        </mxCell>
        <mxCell id="71UlrcfyzYEdRjOuj_ob-116" style="edgeStyle=orthogonalEdgeStyle;rounded=0;orthogonalLoop=1;jettySize=auto;html=1;exitX=1;exitY=0;exitDx=0;exitDy=0;entryX=0.5;entryY=1;entryDx=0;entryDy=0;" parent="1" source="71UlrcfyzYEdRjOuj_ob-67" target="71UlrcfyzYEdRjOuj_ob-111" edge="1">
          <mxGeometry relative="1" as="geometry" />
        </mxCell>
        <mxCell id="71UlrcfyzYEdRjOuj_ob-117" style="edgeStyle=orthogonalEdgeStyle;rounded=0;orthogonalLoop=1;jettySize=auto;html=1;exitX=0;exitY=0.5;exitDx=0;exitDy=0;" parent="1" source="71UlrcfyzYEdRjOuj_ob-67" target="71UlrcfyzYEdRjOuj_ob-113" edge="1">
          <mxGeometry relative="1" as="geometry" />
        </mxCell>
        <mxCell id="71UlrcfyzYEdRjOuj_ob-118" style="edgeStyle=orthogonalEdgeStyle;rounded=0;orthogonalLoop=1;jettySize=auto;html=1;exitX=1;exitY=1;exitDx=0;exitDy=0;entryX=0.5;entryY=0;entryDx=0;entryDy=0;" parent="1" source="71UlrcfyzYEdRjOuj_ob-67" target="71UlrcfyzYEdRjOuj_ob-112" edge="1">
          <mxGeometry relative="1" as="geometry" />
        </mxCell>
        <mxCell id="71UlrcfyzYEdRjOuj_ob-160" value="BUY AGAIN" style="edgeLabel;html=1;align=center;verticalAlign=middle;resizable=0;points=[];" parent="71UlrcfyzYEdRjOuj_ob-118" vertex="1" connectable="0">
          <mxGeometry x="-0.0287" y="1" relative="1" as="geometry">
            <mxPoint as="offset" />
          </mxGeometry>
        </mxCell>
        <mxCell id="71UlrcfyzYEdRjOuj_ob-119" style="edgeStyle=orthogonalEdgeStyle;rounded=0;orthogonalLoop=1;jettySize=auto;html=1;exitX=0.658;exitY=0.983;exitDx=0;exitDy=0;entryX=0.5;entryY=0;entryDx=0;entryDy=0;exitPerimeter=0;" parent="1" source="71UlrcfyzYEdRjOuj_ob-67" target="71UlrcfyzYEdRjOuj_ob-114" edge="1">
          <mxGeometry relative="1" as="geometry" />
        </mxCell>
        <mxCell id="71UlrcfyzYEdRjOuj_ob-161" value="SHIPPING ADDRESS" style="edgeLabel;html=1;align=center;verticalAlign=middle;resizable=0;points=[];" parent="71UlrcfyzYEdRjOuj_ob-119" vertex="1" connectable="0">
          <mxGeometry x="0.1338" relative="1" as="geometry">
            <mxPoint x="-1" as="offset" />
          </mxGeometry>
        </mxCell>
        <mxCell id="71UlrcfyzYEdRjOuj_ob-120" style="edgeStyle=orthogonalEdgeStyle;rounded=0;orthogonalLoop=1;jettySize=auto;html=1;exitX=0;exitY=1;exitDx=0;exitDy=0;entryX=0.5;entryY=0;entryDx=0;entryDy=0;" parent="1" source="71UlrcfyzYEdRjOuj_ob-67" target="71UlrcfyzYEdRjOuj_ob-115" edge="1">
          <mxGeometry relative="1" as="geometry" />
        </mxCell>
        <mxCell id="71UlrcfyzYEdRjOuj_ob-162" value="PAYMENT TYPE" style="edgeLabel;html=1;align=center;verticalAlign=middle;resizable=0;points=[];" parent="71UlrcfyzYEdRjOuj_ob-120" vertex="1" connectable="0">
          <mxGeometry x="0.1974" y="-1" relative="1" as="geometry">
            <mxPoint as="offset" />
          </mxGeometry>
        </mxCell>
        <mxCell id="71UlrcfyzYEdRjOuj_ob-67" value="PROFILE&amp;nbsp;" style="rounded=1;whiteSpace=wrap;html=1;" parent="1" vertex="1">
          <mxGeometry x="3770" y="1099" width="120" height="60" as="geometry" />
        </mxCell>
        <mxCell id="71UlrcfyzYEdRjOuj_ob-125" style="edgeStyle=orthogonalEdgeStyle;rounded=0;orthogonalLoop=1;jettySize=auto;html=1;exitX=0.5;exitY=1;exitDx=0;exitDy=0;entryX=1;entryY=0.5;entryDx=0;entryDy=0;" parent="1" source="71UlrcfyzYEdRjOuj_ob-68" target="71UlrcfyzYEdRjOuj_ob-64" edge="1">
          <mxGeometry relative="1" as="geometry" />
        </mxCell>
        <mxCell id="71UlrcfyzYEdRjOuj_ob-153" value="SELECT PRODUCT" style="edgeLabel;html=1;align=center;verticalAlign=middle;resizable=0;points=[];" parent="71UlrcfyzYEdRjOuj_ob-125" vertex="1" connectable="0">
          <mxGeometry x="-0.49" y="-2" relative="1" as="geometry">
            <mxPoint as="offset" />
          </mxGeometry>
        </mxCell>
        <mxCell id="71UlrcfyzYEdRjOuj_ob-126" style="edgeStyle=orthogonalEdgeStyle;rounded=0;orthogonalLoop=1;jettySize=auto;html=1;exitX=0;exitY=0;exitDx=0;exitDy=0;entryX=0.5;entryY=1;entryDx=0;entryDy=0;" parent="1" source="71UlrcfyzYEdRjOuj_ob-68" target="71UlrcfyzYEdRjOuj_ob-124" edge="1">
          <mxGeometry relative="1" as="geometry" />
        </mxCell>
        <mxCell id="71UlrcfyzYEdRjOuj_ob-157" value="RETAIL SHOP" style="edgeLabel;html=1;align=center;verticalAlign=middle;resizable=0;points=[];" parent="71UlrcfyzYEdRjOuj_ob-126" vertex="1" connectable="0">
          <mxGeometry x="-0.1511" y="1" relative="1" as="geometry">
            <mxPoint x="-1" as="offset" />
          </mxGeometry>
        </mxCell>
        <mxCell id="71UlrcfyzYEdRjOuj_ob-68" value="PRODUCT LIST" style="rounded=1;whiteSpace=wrap;html=1;" parent="1" vertex="1">
          <mxGeometry x="3315" y="1099" width="120" height="60" as="geometry" />
        </mxCell>
        <mxCell id="71UlrcfyzYEdRjOuj_ob-98" style="edgeStyle=orthogonalEdgeStyle;rounded=0;orthogonalLoop=1;jettySize=auto;html=1;exitX=0.5;exitY=1;exitDx=0;exitDy=0;" parent="1" source="71UlrcfyzYEdRjOuj_ob-69" target="71UlrcfyzYEdRjOuj_ob-83" edge="1">
          <mxGeometry relative="1" as="geometry" />
        </mxCell>
        <mxCell id="71UlrcfyzYEdRjOuj_ob-99" style="edgeStyle=orthogonalEdgeStyle;rounded=0;orthogonalLoop=1;jettySize=auto;html=1;exitX=1;exitY=1;exitDx=0;exitDy=0;entryX=-0.008;entryY=0.65;entryDx=0;entryDy=0;entryPerimeter=0;" parent="1" source="71UlrcfyzYEdRjOuj_ob-69" target="71UlrcfyzYEdRjOuj_ob-80" edge="1">
          <mxGeometry relative="1" as="geometry" />
        </mxCell>
        <mxCell id="71UlrcfyzYEdRjOuj_ob-100" style="edgeStyle=orthogonalEdgeStyle;rounded=0;orthogonalLoop=1;jettySize=auto;html=1;exitX=1;exitY=0.5;exitDx=0;exitDy=0;entryX=-0.015;entryY=0.645;entryDx=0;entryDy=0;entryPerimeter=0;" parent="1" source="71UlrcfyzYEdRjOuj_ob-69" target="71UlrcfyzYEdRjOuj_ob-81" edge="1">
          <mxGeometry relative="1" as="geometry" />
        </mxCell>
        <mxCell id="71UlrcfyzYEdRjOuj_ob-69" value="CREW INFORMATION" style="rounded=1;whiteSpace=wrap;html=1;" parent="1" vertex="1">
          <mxGeometry x="2360" y="1158" width="120" height="60" as="geometry" />
        </mxCell>
        <mxCell id="71UlrcfyzYEdRjOuj_ob-101" style="edgeStyle=orthogonalEdgeStyle;rounded=0;orthogonalLoop=1;jettySize=auto;html=1;exitX=1;exitY=0.5;exitDx=0;exitDy=0;entryX=0;entryY=0.5;entryDx=0;entryDy=0;" parent="1" source="71UlrcfyzYEdRjOuj_ob-70" target="71UlrcfyzYEdRjOuj_ob-82" edge="1">
          <mxGeometry relative="1" as="geometry" />
        </mxCell>
        <mxCell id="71UlrcfyzYEdRjOuj_ob-70" value="SHOP LOCATION" style="rounded=1;whiteSpace=wrap;html=1;" parent="1" vertex="1">
          <mxGeometry x="2310" y="1018" width="120" height="60" as="geometry" />
        </mxCell>
        <mxCell id="71UlrcfyzYEdRjOuj_ob-95" style="edgeStyle=orthogonalEdgeStyle;rounded=0;orthogonalLoop=1;jettySize=auto;html=1;exitX=0;exitY=0.5;exitDx=0;exitDy=0;entryX=1;entryY=0.5;entryDx=0;entryDy=0;" parent="1" source="71UlrcfyzYEdRjOuj_ob-71" target="71UlrcfyzYEdRjOuj_ob-77" edge="1">
          <mxGeometry relative="1" as="geometry" />
        </mxCell>
        <mxCell id="71UlrcfyzYEdRjOuj_ob-96" style="edgeStyle=orthogonalEdgeStyle;rounded=0;orthogonalLoop=1;jettySize=auto;html=1;exitX=0;exitY=1;exitDx=0;exitDy=0;entryX=0.5;entryY=0;entryDx=0;entryDy=0;" parent="1" source="71UlrcfyzYEdRjOuj_ob-71" target="71UlrcfyzYEdRjOuj_ob-78" edge="1">
          <mxGeometry relative="1" as="geometry" />
        </mxCell>
        <mxCell id="71UlrcfyzYEdRjOuj_ob-97" style="edgeStyle=orthogonalEdgeStyle;rounded=0;orthogonalLoop=1;jettySize=auto;html=1;exitX=0.5;exitY=1;exitDx=0;exitDy=0;" parent="1" source="71UlrcfyzYEdRjOuj_ob-71" target="71UlrcfyzYEdRjOuj_ob-79" edge="1">
          <mxGeometry relative="1" as="geometry" />
        </mxCell>
        <mxCell id="71UlrcfyzYEdRjOuj_ob-143" style="edgeStyle=orthogonalEdgeStyle;rounded=0;orthogonalLoop=1;jettySize=auto;html=1;exitX=1;exitY=0.5;exitDx=0;exitDy=0;entryX=0.5;entryY=0;entryDx=0;entryDy=0;" parent="1" source="71UlrcfyzYEdRjOuj_ob-71" target="71UlrcfyzYEdRjOuj_ob-142" edge="1">
          <mxGeometry relative="1" as="geometry" />
        </mxCell>
        <mxCell id="71UlrcfyzYEdRjOuj_ob-71" value="STORE" style="rounded=1;whiteSpace=wrap;html=1;" parent="1" vertex="1">
          <mxGeometry x="2080" y="1158" width="120" height="60" as="geometry" />
        </mxCell>
        <mxCell id="71UlrcfyzYEdRjOuj_ob-91" style="edgeStyle=orthogonalEdgeStyle;rounded=0;orthogonalLoop=1;jettySize=auto;html=1;exitX=0;exitY=0;exitDx=0;exitDy=0;entryX=1;entryY=0.5;entryDx=0;entryDy=0;" parent="1" source="71UlrcfyzYEdRjOuj_ob-72" target="71UlrcfyzYEdRjOuj_ob-74" edge="1">
          <mxGeometry relative="1" as="geometry" />
        </mxCell>
        <mxCell id="71UlrcfyzYEdRjOuj_ob-92" style="edgeStyle=orthogonalEdgeStyle;rounded=0;orthogonalLoop=1;jettySize=auto;html=1;exitX=0;exitY=0.25;exitDx=0;exitDy=0;entryX=1;entryY=0.5;entryDx=0;entryDy=0;" parent="1" source="71UlrcfyzYEdRjOuj_ob-72" target="71UlrcfyzYEdRjOuj_ob-76" edge="1">
          <mxGeometry relative="1" as="geometry" />
        </mxCell>
        <mxCell id="71UlrcfyzYEdRjOuj_ob-93" style="edgeStyle=orthogonalEdgeStyle;rounded=0;orthogonalLoop=1;jettySize=auto;html=1;exitX=0;exitY=0.75;exitDx=0;exitDy=0;entryX=1;entryY=0.5;entryDx=0;entryDy=0;" parent="1" source="71UlrcfyzYEdRjOuj_ob-72" target="71UlrcfyzYEdRjOuj_ob-73" edge="1">
          <mxGeometry relative="1" as="geometry" />
        </mxCell>
        <mxCell id="71UlrcfyzYEdRjOuj_ob-94" style="edgeStyle=orthogonalEdgeStyle;rounded=0;orthogonalLoop=1;jettySize=auto;html=1;exitX=0;exitY=1;exitDx=0;exitDy=0;entryX=1;entryY=0.5;entryDx=0;entryDy=0;" parent="1" source="71UlrcfyzYEdRjOuj_ob-72" target="71UlrcfyzYEdRjOuj_ob-75" edge="1">
          <mxGeometry relative="1" as="geometry" />
        </mxCell>
        <mxCell id="71UlrcfyzYEdRjOuj_ob-72" value="CUSTOMER&amp;nbsp;" style="rounded=1;whiteSpace=wrap;html=1;" parent="1" vertex="1">
          <mxGeometry x="1890" y="878" width="120" height="60" as="geometry" />
        </mxCell>
        <mxCell id="71UlrcfyzYEdRjOuj_ob-73" value="PURCHASE RECORD" style="rounded=1;whiteSpace=wrap;html=1;" parent="1" vertex="1">
          <mxGeometry x="1690" y="928" width="120" height="60" as="geometry" />
        </mxCell>
        <mxCell id="71UlrcfyzYEdRjOuj_ob-74" value="CUSTOMER INFORMATION" style="rounded=1;whiteSpace=wrap;html=1;" parent="1" vertex="1">
          <mxGeometry x="1690" y="758" width="120" height="60" as="geometry" />
        </mxCell>
        <mxCell id="71UlrcfyzYEdRjOuj_ob-75" value="PREFERENCES" style="rounded=1;whiteSpace=wrap;html=1;" parent="1" vertex="1">
          <mxGeometry x="1690" y="1003" width="120" height="60" as="geometry" />
        </mxCell>
        <mxCell id="71UlrcfyzYEdRjOuj_ob-76" value="ID/PASSWORD" style="rounded=1;whiteSpace=wrap;html=1;" parent="1" vertex="1">
          <mxGeometry x="1690" y="843" width="120" height="60" as="geometry" />
        </mxCell>
        <mxCell id="71UlrcfyzYEdRjOuj_ob-77" value="TYPE OF INVENTORY" style="rounded=1;whiteSpace=wrap;html=1;" parent="1" vertex="1">
          <mxGeometry x="1850" y="1158" width="120" height="60" as="geometry" />
        </mxCell>
        <mxCell id="71UlrcfyzYEdRjOuj_ob-104" style="edgeStyle=orthogonalEdgeStyle;rounded=0;orthogonalLoop=1;jettySize=auto;html=1;exitX=0.75;exitY=1;exitDx=0;exitDy=0;entryX=0;entryY=0.25;entryDx=0;entryDy=0;" parent="1" source="71UlrcfyzYEdRjOuj_ob-78" target="71UlrcfyzYEdRjOuj_ob-106" edge="1">
          <mxGeometry relative="1" as="geometry" />
        </mxCell>
        <mxCell id="71UlrcfyzYEdRjOuj_ob-105" value="STOCK REDUCTION--ORDERING STOCK" style="edgeLabel;html=1;align=center;verticalAlign=middle;resizable=0;points=[];" parent="71UlrcfyzYEdRjOuj_ob-104" vertex="1" connectable="0">
          <mxGeometry x="0.012" y="-2" relative="1" as="geometry">
            <mxPoint as="offset" />
          </mxGeometry>
        </mxCell>
        <mxCell id="71UlrcfyzYEdRjOuj_ob-78" value="QUANTITY" style="rounded=1;whiteSpace=wrap;html=1;" parent="1" vertex="1">
          <mxGeometry x="1890" y="1298" width="120" height="60" as="geometry" />
        </mxCell>
        <mxCell id="71UlrcfyzYEdRjOuj_ob-79" value="PRICE" style="rounded=1;whiteSpace=wrap;html=1;" parent="1" vertex="1">
          <mxGeometry x="2080" y="1298" width="120" height="60" as="geometry" />
        </mxCell>
        <mxCell id="71UlrcfyzYEdRjOuj_ob-80" value="ID/PASSWORD" style="rounded=1;whiteSpace=wrap;html=1;" parent="1" vertex="1">
          <mxGeometry x="2530" y="1228" width="120" height="60" as="geometry" />
        </mxCell>
        <mxCell id="71UlrcfyzYEdRjOuj_ob-81" value="CREW INFORMATION" style="rounded=1;whiteSpace=wrap;html=1;" parent="1" vertex="1">
          <mxGeometry x="2530" y="1118" width="120" height="60" as="geometry" />
        </mxCell>
        <mxCell id="71UlrcfyzYEdRjOuj_ob-82" value="SALES" style="rounded=1;whiteSpace=wrap;html=1;" parent="1" vertex="1">
          <mxGeometry x="2510" y="1018" width="120" height="60" as="geometry" />
        </mxCell>
        <mxCell id="71UlrcfyzYEdRjOuj_ob-83" value="SALES" style="rounded=1;whiteSpace=wrap;html=1;" parent="1" vertex="1">
          <mxGeometry x="2360" y="1288" width="120" height="60" as="geometry" />
        </mxCell>
        <mxCell id="71UlrcfyzYEdRjOuj_ob-166" style="edgeStyle=orthogonalEdgeStyle;rounded=0;orthogonalLoop=1;jettySize=auto;html=1;exitX=0;exitY=0.5;exitDx=0;exitDy=0;entryX=1;entryY=0.5;entryDx=0;entryDy=0;" parent="1" source="71UlrcfyzYEdRjOuj_ob-103" target="71UlrcfyzYEdRjOuj_ob-55" edge="1">
          <mxGeometry relative="1" as="geometry" />
        </mxCell>
        <mxCell id="71UlrcfyzYEdRjOuj_ob-167" style="edgeStyle=orthogonalEdgeStyle;rounded=0;orthogonalLoop=1;jettySize=auto;html=1;exitX=1;exitY=0.5;exitDx=0;exitDy=0;entryX=0;entryY=0.5;entryDx=0;entryDy=0;" parent="1" source="71UlrcfyzYEdRjOuj_ob-103" target="71UlrcfyzYEdRjOuj_ob-109" edge="1">
          <mxGeometry relative="1" as="geometry" />
        </mxCell>
        <mxCell id="71UlrcfyzYEdRjOuj_ob-103" value="&lt;font style=&quot;font-size: 36px;&quot;&gt;SYSTEM&lt;/font&gt;" style="ellipse;whiteSpace=wrap;html=1;" parent="1" vertex="1">
          <mxGeometry x="2710" y="490" width="330" height="206" as="geometry" />
        </mxCell>
        <mxCell id="71UlrcfyzYEdRjOuj_ob-164" style="edgeStyle=orthogonalEdgeStyle;rounded=0;orthogonalLoop=1;jettySize=auto;html=1;exitX=0;exitY=0.75;exitDx=0;exitDy=0;entryX=0.25;entryY=1;entryDx=0;entryDy=0;" parent="1" source="71UlrcfyzYEdRjOuj_ob-106" target="71UlrcfyzYEdRjOuj_ob-78" edge="1">
          <mxGeometry relative="1" as="geometry" />
        </mxCell>
        <mxCell id="71UlrcfyzYEdRjOuj_ob-165" value="RESTOCKING" style="edgeLabel;html=1;align=center;verticalAlign=middle;resizable=0;points=[];" parent="71UlrcfyzYEdRjOuj_ob-164" vertex="1" connectable="0">
          <mxGeometry x="-0.2935" y="1" relative="1" as="geometry">
            <mxPoint as="offset" />
          </mxGeometry>
        </mxCell>
        <mxCell id="71UlrcfyzYEdRjOuj_ob-106" value="SUPPLIER" style="rounded=1;whiteSpace=wrap;html=1;" parent="1" vertex="1">
          <mxGeometry x="2560" y="1678" width="120" height="60" as="geometry" />
        </mxCell>
        <mxCell id="71UlrcfyzYEdRjOuj_ob-147" style="edgeStyle=orthogonalEdgeStyle;rounded=0;orthogonalLoop=1;jettySize=auto;html=1;exitX=0.5;exitY=1;exitDx=0;exitDy=0;entryX=0.5;entryY=0;entryDx=0;entryDy=0;" parent="1" source="71UlrcfyzYEdRjOuj_ob-109" target="71UlrcfyzYEdRjOuj_ob-60" edge="1">
          <mxGeometry relative="1" as="geometry" />
        </mxCell>
        <mxCell id="71UlrcfyzYEdRjOuj_ob-109" value="USER" style="rounded=1;whiteSpace=wrap;html=1;" parent="1" vertex="1">
          <mxGeometry x="3405" y="538" width="150" height="110" as="geometry" />
        </mxCell>
        <mxCell id="71UlrcfyzYEdRjOuj_ob-111" value="ID/ PASSWORD" style="rounded=1;whiteSpace=wrap;html=1;" parent="1" vertex="1">
          <mxGeometry x="3970" y="893" width="120" height="60" as="geometry" />
        </mxCell>
        <mxCell id="71UlrcfyzYEdRjOuj_ob-112" value="PURCHASE&lt;br&gt;RECORD" style="rounded=1;whiteSpace=wrap;html=1;" parent="1" vertex="1">
          <mxGeometry x="3970" y="1228" width="120" height="60" as="geometry" />
        </mxCell>
        <mxCell id="71UlrcfyzYEdRjOuj_ob-113" value="STATUS" style="rounded=1;whiteSpace=wrap;html=1;" parent="1" vertex="1">
          <mxGeometry x="3560" y="1098" width="120" height="60" as="geometry" />
        </mxCell>
        <mxCell id="71UlrcfyzYEdRjOuj_ob-137" style="edgeStyle=orthogonalEdgeStyle;rounded=0;orthogonalLoop=1;jettySize=auto;html=1;exitX=0.5;exitY=1;exitDx=0;exitDy=0;entryX=1;entryY=0.5;entryDx=0;entryDy=0;" parent="1" source="71UlrcfyzYEdRjOuj_ob-114" target="71UlrcfyzYEdRjOuj_ob-136" edge="1">
          <mxGeometry relative="1" as="geometry" />
        </mxCell>
        <mxCell id="71UlrcfyzYEdRjOuj_ob-114" value="ADDRESS" style="rounded=1;whiteSpace=wrap;html=1;" parent="1" vertex="1">
          <mxGeometry x="3790" y="1329" width="120" height="60" as="geometry" />
        </mxCell>
        <mxCell id="71UlrcfyzYEdRjOuj_ob-115" value="PAYMENT METHOD" style="rounded=1;whiteSpace=wrap;html=1;" parent="1" vertex="1">
          <mxGeometry x="3570" y="1328" width="120" height="60" as="geometry" />
        </mxCell>
        <mxCell id="71UlrcfyzYEdRjOuj_ob-124" value="PRODUCT DETAILS" style="rounded=1;whiteSpace=wrap;html=1;" parent="1" vertex="1">
          <mxGeometry x="3210" y="958" width="120" height="60" as="geometry" />
        </mxCell>
        <mxCell id="71UlrcfyzYEdRjOuj_ob-140" style="edgeStyle=orthogonalEdgeStyle;rounded=0;orthogonalLoop=1;jettySize=auto;html=1;exitX=0.5;exitY=1;exitDx=0;exitDy=0;entryX=0.5;entryY=0;entryDx=0;entryDy=0;" parent="1" source="71UlrcfyzYEdRjOuj_ob-127" target="71UlrcfyzYEdRjOuj_ob-135" edge="1">
          <mxGeometry relative="1" as="geometry" />
        </mxCell>
        <mxCell id="71UlrcfyzYEdRjOuj_ob-163" style="edgeStyle=orthogonalEdgeStyle;rounded=0;orthogonalLoop=1;jettySize=auto;html=1;exitX=1;exitY=0.5;exitDx=0;exitDy=0;entryX=0;entryY=0.5;entryDx=0;entryDy=0;" parent="1" source="71UlrcfyzYEdRjOuj_ob-127" target="71UlrcfyzYEdRjOuj_ob-115" edge="1">
          <mxGeometry relative="1" as="geometry" />
        </mxCell>
        <mxCell id="71UlrcfyzYEdRjOuj_ob-127" value="PAY" style="rounded=1;whiteSpace=wrap;html=1;" parent="1" vertex="1">
          <mxGeometry x="3170" y="1329" width="120" height="60" as="geometry" />
        </mxCell>
        <mxCell id="71UlrcfyzYEdRjOuj_ob-138" style="edgeStyle=orthogonalEdgeStyle;rounded=0;orthogonalLoop=1;jettySize=auto;html=1;exitX=0.5;exitY=1;exitDx=0;exitDy=0;entryX=0.5;entryY=0;entryDx=0;entryDy=0;" parent="1" source="71UlrcfyzYEdRjOuj_ob-133" target="71UlrcfyzYEdRjOuj_ob-136" edge="1">
          <mxGeometry relative="1" as="geometry" />
        </mxCell>
        <mxCell id="71UlrcfyzYEdRjOuj_ob-141" style="edgeStyle=orthogonalEdgeStyle;rounded=0;orthogonalLoop=1;jettySize=auto;html=1;exitX=0;exitY=0.5;exitDx=0;exitDy=0;entryX=1;entryY=0.5;entryDx=0;entryDy=0;" parent="1" source="71UlrcfyzYEdRjOuj_ob-133" target="71UlrcfyzYEdRjOuj_ob-58" edge="1">
          <mxGeometry relative="1" as="geometry" />
        </mxCell>
        <mxCell id="71UlrcfyzYEdRjOuj_ob-133" value="PAYMENT" style="rounded=1;whiteSpace=wrap;html=1;" parent="1" vertex="1">
          <mxGeometry x="3170" y="1529" width="120" height="60" as="geometry" />
        </mxCell>
        <mxCell id="71UlrcfyzYEdRjOuj_ob-139" style="edgeStyle=orthogonalEdgeStyle;rounded=0;orthogonalLoop=1;jettySize=auto;html=1;exitX=0.5;exitY=1;exitDx=0;exitDy=0;entryX=0.5;entryY=0;entryDx=0;entryDy=0;" parent="1" source="71UlrcfyzYEdRjOuj_ob-135" target="71UlrcfyzYEdRjOuj_ob-133" edge="1">
          <mxGeometry relative="1" as="geometry" />
        </mxCell>
        <mxCell id="71UlrcfyzYEdRjOuj_ob-135" value="TRANSACTION&lt;br&gt;CONFIRMATION" style="rounded=1;whiteSpace=wrap;html=1;" parent="1" vertex="1">
          <mxGeometry x="3170" y="1419" width="120" height="60" as="geometry" />
        </mxCell>
        <mxCell id="71UlrcfyzYEdRjOuj_ob-136" value="SHIPPING" style="rounded=1;whiteSpace=wrap;html=1;" parent="1" vertex="1">
          <mxGeometry x="3170" y="1629" width="120" height="60" as="geometry" />
        </mxCell>
        <mxCell id="71UlrcfyzYEdRjOuj_ob-142" value="SALES" style="rounded=1;whiteSpace=wrap;html=1;" parent="1" vertex="1">
          <mxGeometry x="2240" y="1398" width="120" height="60" as="geometry" />
        </mxCell>
        <mxCell id="71UlrcfyzYEdRjOuj_ob-169" style="edgeStyle=orthogonalEdgeStyle;rounded=0;orthogonalLoop=1;jettySize=auto;html=1;exitX=0.5;exitY=1;exitDx=0;exitDy=0;entryX=0.5;entryY=0;entryDx=0;entryDy=0;" parent="1" source="71UlrcfyzYEdRjOuj_ob-168" target="71UlrcfyzYEdRjOuj_ob-66" edge="1">
          <mxGeometry relative="1" as="geometry" />
        </mxCell>
        <mxCell id="71UlrcfyzYEdRjOuj_ob-168" value="LOGIN" style="rounded=1;whiteSpace=wrap;html=1;" parent="1" vertex="1">
          <mxGeometry x="2080" y="864" width="120" height="60" as="geometry" />
        </mxCell>
        <mxCell id="71UlrcfyzYEdRjOuj_ob-186" style="edgeStyle=orthogonalEdgeStyle;rounded=0;orthogonalLoop=1;jettySize=auto;html=1;exitX=0.5;exitY=1;exitDx=0;exitDy=0;entryX=1;entryY=0.5;entryDx=0;entryDy=0;" parent="1" source="71UlrcfyzYEdRjOuj_ob-177" target="71UlrcfyzYEdRjOuj_ob-181" edge="1">
          <mxGeometry relative="1" as="geometry" />
        </mxCell>
        <mxCell id="71UlrcfyzYEdRjOuj_ob-187" value="PAY" style="edgeLabel;html=1;align=center;verticalAlign=middle;resizable=0;points=[];" parent="71UlrcfyzYEdRjOuj_ob-186" vertex="1" connectable="0">
          <mxGeometry x="-0.4243" y="-2" relative="1" as="geometry">
            <mxPoint y="1" as="offset" />
          </mxGeometry>
        </mxCell>
        <mxCell id="71UlrcfyzYEdRjOuj_ob-177" value="ACOUNT" style="ellipse;whiteSpace=wrap;html=1;" parent="1" vertex="1">
          <mxGeometry x="490" y="1358" width="120" height="80" as="geometry" />
        </mxCell>
        <mxCell id="71UlrcfyzYEdRjOuj_ob-184" style="edgeStyle=orthogonalEdgeStyle;rounded=0;orthogonalLoop=1;jettySize=auto;html=1;exitX=0;exitY=0.5;exitDx=0;exitDy=0;entryX=0.5;entryY=1;entryDx=0;entryDy=0;" parent="1" source="71UlrcfyzYEdRjOuj_ob-181" target="71UlrcfyzYEdRjOuj_ob-50" edge="1">
          <mxGeometry relative="1" as="geometry">
            <mxPoint x="210" y="1310" as="targetPoint" />
          </mxGeometry>
        </mxCell>
        <mxCell id="71UlrcfyzYEdRjOuj_ob-185" value="RESTOCKING" style="edgeLabel;html=1;align=center;verticalAlign=middle;resizable=0;points=[];" parent="71UlrcfyzYEdRjOuj_ob-184" vertex="1" connectable="0">
          <mxGeometry x="-0.4111" y="-1" relative="1" as="geometry">
            <mxPoint as="offset" />
          </mxGeometry>
        </mxCell>
        <mxCell id="71UlrcfyzYEdRjOuj_ob-181" value="SUPPLIER" style="rounded=1;whiteSpace=wrap;html=1;" parent="1" vertex="1">
          <mxGeometry x="300" y="1479" width="120" height="60" as="geometry" />
        </mxCell>
      </root>
    </mxGraphModel>
  </diagram>
</mxfile>
